<svg width="72" height="72" viewBox="0 0 72 72" fill="none" xmlns="http://www.w3.org/2000/svg">
<g clip-path="url(#clip0_590_8264)">
<path d="M41.897 44.8621C44.6767 44.1493 47.0913 42.5815 48.8799 40.3282C51.0729 37.5654 52.0451 34.1155 51.6174 30.6138C51.1898 27.1128 49.4139 23.9958 46.6191 21.8424C43.9114 19.7549 40.5358 18.8269 37.1142 19.2293C33.6927 19.6318 30.6243 21.3177 28.4743 23.9763C26.6312 26.2555 25.6259 29.0047 25.5672 31.9267C25.4718 36.6702 23.8372 41.2758 20.9643 44.8952L17.8208 48.8554C16.4264 50.6121 16.7211 53.1756 18.4778 54.57L21.441 56.9221C23.1977 58.3165 25.7613 58.0217 27.1556 56.2651L30.2989 52.3051C33.2037 48.6459 37.2055 46.0651 41.897 44.8621ZM27.2431 31.9604C27.2943 29.4139 28.1707 27.0176 29.7777 25.0304C33.6382 20.2565 40.734 19.422 45.5956 23.1701C48.033 25.052 49.5806 27.7651 49.9533 30.8171C50.3262 33.8699 49.4787 36.8776 47.5669 39.2861C46.0076 41.2504 43.903 42.6171 41.4805 43.2384C36.5373 44.5061 32.2875 47.1893 29.1705 51.0069L22.4712 45.6892C25.4504 41.8233 27.1427 36.961 27.2431 31.9604ZM19.4869 49.4527L19.9088 48.9212L26.0077 55.0152L25.8427 55.223C25.7559 55.3324 25.6599 55.43 25.5591 55.5199L19.4869 49.4527ZM20.9578 47.5997L21.4309 47.0037L28.1398 52.3291L27.0567 53.6937L20.9578 47.5997ZM19.5199 53.2571C18.8147 52.6973 18.511 51.8171 18.65 50.9861L23.7876 56.1196C23.3269 56.0851 22.8716 55.9174 22.4833 55.6092L19.52 53.257L19.5199 53.2571Z" fill="black"/>
<path d="M31.3641 28.0341C31.5856 27.6499 31.8413 27.2775 32.1243 26.9277C32.4154 26.5678 32.3596 26.0401 31.9997 25.749C31.6421 25.46 31.112 25.5137 30.8209 25.8736C30.4829 26.2916 30.177 26.7368 29.9117 27.197C29.7017 27.5613 29.7961 28.0176 30.1159 28.2715C30.1481 28.2971 30.1827 28.3206 30.2194 28.3418C30.6204 28.5728 31.1329 28.4351 31.3641 28.0341Z" fill="black"/>
<path d="M27.3123 41.0724C27.3802 41.1263 27.4578 41.1705 27.5437 41.2022C27.978 41.3624 28.4599 41.1401 28.62 40.7058C29.6487 37.9158 30.2006 34.9937 30.2603 32.021C30.2702 31.5296 30.3225 31.0393 30.4159 30.5637C30.5051 30.1095 30.2091 29.669 29.7548 29.5798C29.3006 29.4907 28.8601 29.7867 28.7709 30.2409C28.659 30.8115 28.5961 31.399 28.5843 31.9873C28.5284 34.7732 28.0112 37.5114 27.0473 40.1259C26.9188 40.4743 27.0364 40.8534 27.3123 41.0724Z" fill="black"/>
<path d="M43.7533 39.9228C43.5343 39.515 43.026 39.3621 42.6183 39.5813C42.0269 39.8992 41.3921 40.1462 40.7315 40.3156C40.2831 40.4305 40.0128 40.8873 40.1278 41.3357C40.175 41.5198 40.2798 41.6738 40.4181 41.7835C40.6165 41.941 40.8836 42.0071 41.148 41.9393C41.9396 41.7363 42.7013 41.4397 43.4118 41.0578C43.8196 40.8388 43.9726 40.3305 43.7533 39.9228Z" fill="black"/>
<path d="M43.8496 25.6353C47.4692 28.5084 48.0764 33.7906 45.2033 37.4102C45.04 37.616 44.8659 37.8158 44.686 38.0042C44.3663 38.339 44.3785 38.8694 44.7132 39.1892C44.7321 39.2072 44.7516 39.2243 44.7717 39.2402C45.1072 39.5065 45.5965 39.4779 45.8982 39.162C46.1132 38.9368 46.3213 38.6981 46.5163 38.4524C49.9641 34.1088 49.2354 27.7701 44.8918 24.3223C44.5293 24.0345 44.002 24.0951 43.7143 24.4577C43.4265 24.8202 43.4871 25.3475 43.8496 25.6353Z" fill="black"/>
<path d="M47.6668 20.8265C48.0294 21.1143 48.5566 21.0537 48.8444 20.6911L51.7626 17.0148C52.0504 16.6523 51.9897 16.125 51.6272 15.8373C51.2646 15.5495 50.7374 15.6101 50.4496 15.9726L47.5315 19.6489C47.2437 20.0115 47.3043 20.5387 47.6668 20.8265Z" fill="black"/>
<path d="M39.9962 16.8519C39.9507 17.1591 40.0778 17.452 40.3047 17.632C40.416 17.7204 40.5514 17.7817 40.7022 17.8041C41.16 17.872 41.5864 17.556 41.6544 17.0981L42.3434 12.4571C42.4113 11.9991 42.0953 11.5729 41.6374 11.5049C41.1795 11.437 40.7532 11.753 40.6852 12.2109L39.9962 16.8519Z" fill="black"/>
<path d="M46.7505 50.7918L45.0262 46.4283C44.8561 45.9976 44.3691 45.7866 43.9387 45.9568C43.5082 46.1269 43.297 46.6138 43.4672 47.0444L45.1915 51.4079C45.2475 51.5497 45.3378 51.6676 45.4492 51.756C45.6761 51.9361 45.9903 51.9935 46.279 51.8794C46.7095 51.7093 46.9206 51.2223 46.7505 50.7918Z" fill="black"/>
<path d="M30.3461 13.8363L32.0704 18.1999C32.1264 18.3416 32.2167 18.4596 32.3281 18.548C32.555 18.7281 32.8692 18.7854 33.1579 18.6713C33.5884 18.5013 33.7995 18.0144 33.6294 17.5838L31.9051 13.2202C31.7351 12.7897 31.2481 12.5786 30.8176 12.7488C30.3871 12.9189 30.176 13.4057 30.3461 13.8363Z" fill="black"/>
<path d="M54.8904 44.2153L51.2141 41.2971C50.8515 41.0093 50.3243 41.07 50.0365 41.4325C49.7487 41.7951 49.8094 42.3223 50.1719 42.6101L53.8482 45.5282C54.2107 45.816 54.738 45.7554 55.0258 45.3928C55.3136 45.0303 55.253 44.5031 54.8904 44.2153Z" fill="black"/>
<path d="M27.0609 23.1955C27.3487 22.8329 27.2881 22.3057 26.9256 22.0179L23.2493 19.0998C22.8867 18.812 22.3595 18.8726 22.0717 19.2352C21.7839 19.5977 21.8445 20.125 22.2071 20.4127L25.8834 23.3309C26.246 23.6187 26.7732 23.558 27.0609 23.1955Z" fill="black"/>
<path d="M53.3664 35.2476C53.4777 35.336 53.6131 35.3973 53.7639 35.4196L58.4049 36.1086C58.8628 36.1766 59.2891 35.8605 59.3571 35.4027C59.425 34.9448 59.1089 34.5184 58.6511 34.4505L54.0101 33.7615C53.5522 33.6935 53.1259 34.0096 53.0579 34.4674C53.0123 34.7746 53.1396 35.0676 53.3664 35.2476Z" fill="black"/>
<path d="M23.3327 29.2086L18.6917 28.5195C18.2339 28.4516 17.8075 28.7676 17.7396 29.2255C17.694 29.5326 17.8211 29.8256 18.048 30.0057C18.1593 30.0941 18.2948 30.1553 18.4455 30.1777L23.0865 30.8667C23.5444 30.9346 23.9708 30.6186 24.0387 30.1607C24.1068 29.7029 23.7904 29.2764 23.3327 29.2086Z" fill="black"/>
<path d="M52.1909 26.924C52.2469 27.0658 52.3372 27.1837 52.4487 27.2721C52.6756 27.4522 52.9897 27.5096 53.2785 27.3955L57.642 25.6712C58.0725 25.5011 58.2836 25.0142 58.1135 24.5837C57.9435 24.1533 57.4565 23.9421 57.026 24.1122L52.6624 25.8365C52.2319 26.0066 52.0209 26.4935 52.1909 26.924Z" fill="black"/>
</g>
<defs>
<clipPath id="clip0_590_8264">
<rect width="50.9468" height="50.9468" fill="white" transform="translate(31.6748) rotate(38.4415)"/>
</clipPath>
</defs>
</svg>
